<svg width="25" height="25" viewBox="0 0 25 25" fill="none" xmlns="http://www.w3.org/2000/svg">
<path d="M3.89035 17.2987L3.19738 17.5856H3.19738L3.89035 17.2987ZM3.4837 10.8161L2.7606 10.617H2.7606L3.4837 10.8161ZM21.5163 10.8161L22.2394 10.617L21.5163 10.8161ZM21.1096 17.2987L20.4167 17.0118V17.0118L21.1096 17.2987ZM14.8865 21.6926L14.7725 20.9513L14.8865 21.6926ZM10.1135 21.6926L9.99956 22.4339L10.1135 21.6926ZM7.90909 6.58016L7.7621 5.84471L7.90909 6.58016ZM17.0909 6.58016L16.9439 7.31562L17.0909 6.58016ZM9.23608 21.5578L9.35002 20.8165L9.23608 21.5578ZM3.9992 17.5616L4.69216 17.2748H4.69216L3.9992 17.5616ZM15.7639 21.5578L15.8778 22.2991L15.7639 21.5578ZM21.0008 17.5617L21.6937 17.8485L21.0008 17.5617ZM21.4266 10.4903L20.7035 10.6894V10.6894L21.4266 10.4903ZM3.57339 10.4903L4.29648 10.6894H4.29648L3.57339 10.4903ZM16.2237 6.85837L15.5384 6.55349L16.2237 6.85837ZM15.2888 7.11455C15.1204 7.493 15.2907 7.93629 15.6691 8.10467C16.0476 8.27305 16.4909 8.10276 16.6593 7.72432L15.2888 7.11455ZM8.77634 6.85837L9.46158 6.55349L9.46158 6.55349L8.77634 6.85837ZM8.34074 7.72432C8.50912 8.10276 8.95242 8.27305 9.33086 8.10467C9.7093 7.93629 9.87959 7.493 9.71121 7.11455L8.34074 7.72432ZM11.6128 1.12738L11.7375 1.86695V1.86695L11.6128 1.12738ZM11.7505 1.10418L11.6258 0.364615L11.6258 0.364615L11.7505 1.10418ZM13.2495 1.10418L13.1249 1.84375L13.1249 1.84375L13.2495 1.10418ZM13.3872 1.12738L13.5119 0.387817L13.5119 0.387817L13.3872 1.12738ZM16.5141 3.991L17.2462 3.82813L16.5141 3.991ZM8.48593 3.991L9.21803 4.15386V4.15386L8.48593 3.991ZM15.65 20.8165L14.7725 20.9513L15.0004 22.4339L15.8778 22.2991L15.65 20.8165ZM10.2274 20.9513L9.35002 20.8165L9.12215 22.2991L9.99956 22.4339L10.2274 20.9513ZM20.7035 10.6894L20.7932 11.0152L22.2394 10.617L22.1497 10.2913L20.7035 10.6894ZM20.4167 17.0118L20.3078 17.2748L21.6937 17.8485L21.8026 17.5856L20.4167 17.0118ZM4.69216 17.2748L4.58331 17.0118L3.19738 17.5856L3.30624 17.8485L4.69216 17.2748ZM4.2068 11.0152L4.29648 10.6894L2.85029 10.2913L2.7606 10.617L4.2068 11.0152ZM4.58331 17.0118C3.79131 15.0988 3.66009 13.001 4.2068 11.0152L2.7606 10.617C2.12494 12.926 2.27835 15.3657 3.19738 17.5856L4.58331 17.0118ZM20.7932 11.0152C21.3399 13.001 21.2087 15.0988 20.4167 17.0118L21.8026 17.5856C22.7216 15.3657 22.8751 12.9259 22.2394 10.617L20.7932 11.0152ZM14.7725 20.9513C13.2675 21.1827 11.7325 21.1827 10.2274 20.9513L9.99956 22.4339C11.6557 22.6885 13.3443 22.6885 15.0004 22.4339L14.7725 20.9513ZM8.05607 7.31562C10.9861 6.73003 14.0139 6.73003 16.9439 7.31562L17.2379 5.84471C14.1138 5.22033 10.8862 5.22033 7.7621 5.84471L8.05607 7.31562ZM9.35002 20.8165C7.22234 20.4895 5.46046 19.1306 4.69216 17.2748L3.30624 17.8485C4.28691 20.2173 6.50729 21.8972 9.12215 22.2991L9.35002 20.8165ZM15.8778 22.2991C18.4927 21.8972 20.7131 20.2173 21.6937 17.8485L20.3078 17.2748C19.5395 19.1306 17.7776 20.4895 15.65 20.8165L15.8778 22.2991ZM16.9439 7.31562C18.798 7.68616 20.2403 9.00673 20.7035 10.6894L22.1497 10.2913C21.5262 8.02652 19.6109 6.31896 17.2379 5.84471L16.9439 7.31562ZM7.7621 5.84471C5.38915 6.31896 3.4738 8.02652 2.85029 10.2913L4.29648 10.6894C4.75974 9.00673 6.20205 7.68616 8.05607 7.31562L7.7621 5.84471ZM15.5384 6.55349L15.2888 7.11455L16.6593 7.72432L16.9089 7.16325L15.5384 6.55349ZM8.09111 7.16325L8.34074 7.72432L9.71121 7.11455L9.46158 6.55349L8.09111 7.16325ZM11.7375 1.86695L11.8751 1.84375L11.6258 0.364615L11.4881 0.387818L11.7375 1.86695ZM13.1249 1.84375L13.2625 1.86695L13.5119 0.387817L13.3742 0.364615L13.1249 1.84375ZM15.782 4.15386C15.9607 4.95731 15.8765 5.79354 15.5384 6.55349L16.9089 7.16325C17.3768 6.11164 17.4952 4.9476 17.2462 3.82813L15.782 4.15386ZM7.75383 3.82813C7.50478 4.9476 7.62322 6.11164 8.09111 7.16325L9.46158 6.55349C9.12345 5.79354 9.03929 4.95731 9.21803 4.15386L7.75383 3.82813ZM11.8751 1.84375C12.2884 1.77409 12.7116 1.77409 13.1249 1.84375L13.3742 0.364615C12.7959 0.267133 12.2041 0.267134 11.6258 0.364615L11.8751 1.84375ZM17.2462 3.82813C16.8489 2.04232 15.3545 0.698416 13.5119 0.387817L13.2625 1.86695C14.5465 2.08338 15.5265 3.00561 15.782 4.15386L17.2462 3.82813ZM9.21803 4.15386C9.47348 3.00562 10.4535 2.08338 11.7375 1.86695L11.4881 0.387818C9.64555 0.698416 8.15111 2.04232 7.75383 3.82813L9.21803 4.15386Z" fill="#707B81"/>
<path fill-rule="evenodd" clip-rule="evenodd" d="M12.5003 9.375C12.8985 9.375 13.2214 9.67915 13.2214 10.0543V10.6101H13.3013C14.6424 10.6101 15.625 11.7085 15.625 12.9364C15.625 13.3116 15.3021 13.6157 14.9038 13.6157C14.5056 13.6157 14.1827 13.3116 14.1827 12.9364C14.1827 12.3452 13.7303 11.9688 13.3013 11.9688H13.2214V14.1075L14.1951 14.4411C15.0799 14.7442 15.625 15.5685 15.625 16.4415C15.625 17.5527 14.7345 18.5565 13.5069 18.5565H13.2214V19.1123C13.2214 19.4875 12.8985 19.7917 12.5003 19.7917C12.102 19.7917 11.7791 19.4875 11.7791 19.1123V18.5565H11.6987C10.3576 18.5565 9.375 17.4581 9.375 16.2302C9.375 15.855 9.69787 15.5509 10.0962 15.5509C10.4944 15.5509 10.8173 15.855 10.8173 16.2302C10.8173 16.8214 11.2697 17.1978 11.6987 17.1978H11.7791V15.0592L10.8049 14.7255C9.9201 14.4224 9.375 13.5981 9.375 12.7251C9.375 11.6139 10.2655 10.6101 11.4931 10.6101H11.7791V10.0543C11.7791 9.67915 12.102 9.375 12.5003 9.375ZM11.7791 11.9688H11.4931C11.1777 11.9688 10.8173 12.2506 10.8173 12.7251C10.8173 13.088 11.0417 13.3609 11.2978 13.4486L11.7791 13.6135V11.9688ZM13.2214 15.5533V17.1978H13.5069C13.8223 17.1978 14.1827 16.916 14.1827 16.4415C14.1827 16.0786 13.9583 15.8057 13.7022 15.718L13.2214 15.5533Z" fill="#707B81"/>
</svg>
