<svg width="25" height="25" viewBox="0 0 25 25" fill="none" xmlns="http://www.w3.org/2000/svg">
<path fill-rule="evenodd" clip-rule="evenodd" d="M3.32299 0.0194405C3.79785 0.27476 3.98484 0.589526 3.89007 0.974218C3.78826 1.3878 3.47774 1.58 2.9115 1.58C2.53772 1.58 2.16355 1.59077 1.7904 1.5755C1.60102 1.56776 1.55851 1.63343 1.5635 1.81064C1.57568 2.24107 1.56937 2.67213 1.56697 3.10291C1.56433 3.573 1.22607 3.92498 0.785312 3.92095C0.339566 3.91685 0.010553 3.57163 0.00844927 3.09688C0.00536707 2.40599 0.0256705 1.71442 0.00120854 1.02441C-0.0157681 0.545944 0.14436 0.206841 0.592552 0.0194405H3.32299ZM24.9717 24.4071C24.7826 24.8527 24.4457 25.0163 23.9666 24.9987C23.285 24.9737 22.6019 24.9935 21.9194 24.992C21.4251 24.9909 21.0728 24.666 21.0717 24.2143C21.0705 23.759 21.4183 23.4344 21.9132 23.4322C22.3357 23.4303 22.7584 23.4235 23.1805 23.4355C23.3578 23.4406 23.4226 23.3966 23.4159 23.2078C23.4015 22.802 23.4113 22.3953 23.4117 21.9889C23.4124 21.5024 23.6362 21.1872 24.0412 21.1028C24.3267 21.0434 24.7733 21.1614 24.9385 21.6421C24.9431 21.6555 24.9603 21.6646 24.9717 21.6756V24.4071ZM24.9717 3.33615C24.7148 3.82241 24.394 4.00604 23.996 3.89463C23.645 3.79636 23.4188 3.51459 23.4133 3.14538C23.4065 2.69076 23.405 2.23589 23.4149 1.78142C23.4183 1.62051 23.3677 1.57292 23.2089 1.57674C22.7871 1.58677 22.3649 1.58051 21.9428 1.5808C21.4885 1.58109 21.1621 1.34296 21.0833 0.947937C21.0109 0.585182 21.2235 0.165576 21.6224 0.0522638C21.6357 0.0484932 21.645 0.0307179 21.6561 0.0194552H24.3866L24.4735 0.0174079L24.6559 0.00350753C24.7765 -0.00455748 24.8884 -0.00277065 24.9521 0.0535565C25.0469 0.137341 24.9717 0.413618 24.9717 0.60474V3.33615ZM10.149 12.5305C10.149 14.3431 10.1505 16.1557 10.1479 17.9684C10.1473 18.3636 9.85092 18.6992 9.47852 18.7455C9.08879 18.7939 8.72719 18.5609 8.62029 18.1826C8.59436 18.0909 8.58981 17.9907 8.58976 17.8944C8.58825 14.2935 8.58805 10.6926 8.58888 7.09167C8.58898 6.60253 8.92206 6.25716 9.38116 6.26229C9.82397 6.26734 10.1481 6.61438 10.1484 7.09255C10.1498 8.9052 10.149 10.7178 10.149 12.5305ZM17.9506 12.4812C17.9506 10.693 17.9501 8.90482 17.951 7.11666C17.9512 6.6048 18.2748 6.25781 18.7423 6.2629C19.1955 6.268 19.5103 6.61567 19.5104 7.11641C19.5108 10.7091 19.5109 14.3017 19.5103 17.8944C19.5102 18.4043 19.1839 18.754 18.7183 18.7489C18.2678 18.7438 17.9511 18.3929 17.9509 17.8946C17.9502 16.0902 17.9506 14.2857 17.9506 12.4812ZM22.6311 12.5226C22.6311 14.3352 22.6325 16.1478 22.63 17.9604C22.6294 18.3624 22.3451 18.6909 21.9684 18.744C21.5745 18.7994 21.1993 18.5543 21.0958 18.1675C21.0753 18.0905 21.0716 18.0072 21.0716 17.9268C21.0706 14.3177 21.0701 10.7088 21.0718 7.09972C21.0721 6.49065 21.6095 6.09955 22.1406 6.31461C22.4476 6.43899 22.6304 6.72139 22.6307 7.08468C22.6317 8.89733 22.6311 10.7099 22.6311 12.5226ZM3.90794 10.9531C3.90789 12.2535 3.91053 13.554 3.90632 14.8544C3.90505 15.2497 3.60476 15.5801 3.22897 15.624C2.8415 15.6693 2.47872 15.4286 2.37501 15.0538C2.35793 14.9922 2.34927 14.9261 2.34927 14.8621C2.34795 12.2531 2.34683 9.64404 2.34947 7.03498C2.34986 6.64828 2.63553 6.32367 3.00206 6.26844C3.38856 6.21021 3.74796 6.43654 3.8757 6.81183C3.91107 6.91565 3.90745 7.0198 3.90755 7.12484C3.90818 8.40089 3.90799 9.677 3.90794 10.9531ZM7.02844 10.9699C7.02839 12.2622 7.03059 13.5546 7.02707 14.8469C7.026 15.2439 6.73211 15.5755 6.35701 15.6233C5.97031 15.6725 5.60529 15.4368 5.4982 15.0606C5.47428 14.9766 5.46968 14.8848 5.46963 14.7965C5.46816 12.2362 5.46777 9.67595 5.46885 7.1157C5.46904 6.60247 5.79194 6.25842 6.26112 6.26288C6.71063 6.26719 7.02781 6.61858 7.02815 7.11732C7.02908 8.40151 7.02849 9.68574 7.02844 10.9699ZM11.7094 10.9264C11.7095 9.65027 11.7088 8.37412 11.7099 7.09791C11.7103 6.61587 12.0281 6.26903 12.4703 6.26277C12.9323 6.2564 13.2687 6.59751 13.269 7.08572C13.2707 9.66242 13.2704 12.2392 13.2689 14.8159C13.2686 15.2863 12.9308 15.6309 12.4838 15.6273C12.0372 15.6237 11.7109 15.2812 11.7101 14.8037C11.7077 13.5113 11.7093 12.2188 11.7094 10.9264ZM16.3906 10.9448C16.3906 12.2453 16.3929 13.5459 16.3893 14.8464C16.3882 15.2432 16.0946 15.5745 15.7193 15.6235C15.3332 15.6739 14.9677 15.4384 14.8613 15.0609C14.8355 14.9692 14.8313 14.869 14.8313 14.7727C14.8298 12.2204 14.8297 9.66819 14.8304 7.11593C14.8306 6.60304 15.1529 6.25777 15.6217 6.2629C16.0733 6.268 16.3903 6.61906 16.3905 7.11647C16.3908 8.39258 16.3906 9.66873 16.3906 10.9448ZM0.00769584 23.0414C0.00779369 22.6593 0.00451579 22.2772 0.0086254 21.8952C0.0136156 21.4341 0.341259 21.0953 0.77903 21.091C1.22458 21.0866 1.56475 21.4343 1.56778 21.9037C1.57062 22.3426 1.5759 22.7818 1.56348 23.2204C1.55853 23.3964 1.61837 23.4393 1.7851 23.4351C2.21553 23.4242 2.64641 23.4286 3.07703 23.432C3.56534 23.4359 3.91275 23.7713 3.90766 24.2272C3.90272 24.6649 3.54949 24.9904 3.072 24.9916C2.33251 24.9935 1.59303 24.9936 0.85359 24.9916C0.320368 24.9901 0.00926141 24.6746 0.00779369 24.1387C0.00681522 23.7729 0.007598 23.4072 0.00769584 23.0414ZM3.90778 17.9681C3.90797 18.4055 3.55474 18.7536 3.1158 18.7488C2.69021 18.7441 2.34725 18.3956 2.34808 17.9686C2.34896 17.5284 2.6975 17.1848 3.13948 17.1886C3.56423 17.1922 3.90758 17.5406 3.90778 17.9681ZM6.22795 18.7488C5.80442 18.7406 5.46435 18.3876 5.46807 17.9599C5.47183 17.5229 5.82785 17.1796 6.26871 17.188C6.70247 17.1962 7.042 17.56 7.02801 18.0014C7.0146 18.4255 6.65966 18.7571 6.22795 18.7488ZM13.27 17.9639C13.2718 18.4008 12.919 18.7524 12.4816 18.7494C12.0569 18.7466 11.7114 18.3988 11.7098 17.9726C11.708 17.5306 12.0543 17.1856 12.4966 17.1886C12.9227 17.1915 13.2682 17.5378 13.27 17.9639ZM15.6107 18.7489C15.1845 18.7501 14.8353 18.4067 14.8302 17.9814C14.8251 17.5402 15.1699 17.1891 15.6088 17.1886C16.0363 17.1882 16.3855 17.5309 16.3899 17.9553C16.3946 18.395 16.0484 18.7476 15.6107 18.7489Z" fill="#D95074"/>
</svg>
