<svg width="200" height="140" viewBox="0 0 200 140" fill="none" xmlns="http://www.w3.org/2000/svg">
<path d="M162 0H42C36.4772 0 32 4.47715 32 10V130C32 135.523 36.4772 140 42 140H162C167.523 140 172 135.523 172 130V10C172 4.47715 167.523 0 162 0Z" fill="#D95074" fill-opacity="0.2"/>
<g filter="url(#filter0_d_1_358)">
<path d="M146 10H11C8.23858 10 6 12.2386 6 15V40C6 42.7614 8.23858 45 11 45H146C148.761 45 151 42.7614 151 40V15C151 12.2386 148.761 10 146 10Z" fill="#F7F7F9"/>
</g>
<path d="M75 18H49C47.3431 18 46 19.3431 46 21C46 22.6569 47.3431 24 49 24H75C76.6569 24 78 22.6569 78 21C78 19.3431 76.6569 18 75 18Z" fill="#D95074" fill-opacity="0.2"/>
<path d="M93 31H49C47.3431 31 46 32.3431 46 34C46 35.6569 47.3431 37 49 37H93C94.6569 37 96 35.6569 96 34C96 32.3431 94.6569 31 93 31Z" fill="#D95074" fill-opacity="0.2"/>
<path d="M33 13H14C11.2386 13 9 15.2386 9 18V37C9 39.7614 11.2386 42 14 42H33C35.7614 42 38 39.7614 38 37V18C38 15.2386 35.7614 13 33 13Z" fill="#D95074"/>
<path d="M21.2222 30.7803H23.2222L23.2442 30.0103C23.2442 28.9983 23.8822 28.7343 24.7842 28.4483C25.689 28.1909 26.4854 27.6459 27.053 26.8957C27.6206 26.1455 27.9285 25.231 27.9302 24.2903C27.95 23.7159 27.8504 23.1437 27.6376 22.6099C27.4248 22.076 27.1036 21.5921 26.6941 21.1889C26.2846 20.7856 25.7959 20.4718 25.2589 20.2672C24.7219 20.0626 24.1482 19.9717 23.5742 20.0003C22.9676 19.987 22.3647 20.0972 21.8019 20.324C21.2392 20.5508 20.7284 20.8895 20.3005 21.3196C19.8726 21.7498 19.5365 22.2624 19.3126 22.8263C19.0888 23.3902 18.9818 23.9937 18.9982 24.6003H21.0662C21.0584 24.2654 21.1174 23.9323 21.24 23.6205C21.3625 23.3088 21.546 23.0246 21.7798 22.7847C22.0136 22.5448 22.2929 22.3539 22.6013 22.2234C22.9098 22.0928 23.2412 22.0251 23.5762 22.0243C23.8783 22.0067 24.1806 22.0545 24.4626 22.1642C24.7446 22.2739 24.9997 22.443 25.2105 22.6601C25.4213 22.8772 25.5829 23.1371 25.6843 23.4222C25.7857 23.7072 25.8246 24.0108 25.7982 24.3123C25.7849 24.8001 25.6152 25.2709 25.3142 25.6551C25.0132 26.0392 24.5968 26.3166 24.1262 26.4463L23.4002 26.7343C22.6894 26.9055 22.0689 27.3375 21.6614 27.9445C21.254 28.5516 21.0894 29.2896 21.2002 30.0123L21.2222 30.7803ZM22.2122 35.5343C22.4081 35.5412 22.6033 35.5088 22.7864 35.439C22.9695 35.3692 23.1368 35.2634 23.2783 35.1279C23.4198 34.9923 23.5327 34.8298 23.6104 34.6498C23.688 34.4699 23.7287 34.2762 23.7302 34.0803C23.7285 33.8845 23.6875 33.691 23.6098 33.5113C23.532 33.3316 23.4191 33.1693 23.2776 33.0339C23.1361 32.8986 22.9689 32.793 22.786 32.7233C22.603 32.6536 22.4079 32.6213 22.2122 32.6283C22.0165 32.6213 21.8215 32.6536 21.6385 32.7233C21.4555 32.793 21.2883 32.8986 21.1468 33.0339C21.0053 33.1693 20.8924 33.3316 20.8147 33.5113C20.7369 33.691 20.696 33.8845 20.6942 34.0803C20.6957 34.2762 20.7365 34.4699 20.8141 34.6498C20.8917 34.8298 21.0046 34.9923 21.1461 35.1279C21.2876 35.2634 21.4549 35.3692 21.638 35.439C21.8211 35.5088 22.0164 35.5412 22.2122 35.5343Z" fill="#F7F7F9"/>
<g filter="url(#filter1_d_1_358)">
<path d="M54 53H189C190.326 53 191.598 53.5268 192.536 54.4645C193.473 55.4021 194 56.6739 194 58V83C194 84.3261 193.473 85.5979 192.536 86.5355C191.598 87.4732 190.326 88 189 88H54C52.6739 88 51.4021 87.4732 50.4645 86.5355C49.5268 85.5979 49 84.3261 49 83V58C49 56.6739 49.5268 55.4021 50.4645 54.4645C51.4021 53.5268 52.6739 53 54 53V53Z" fill="#F7F7F9"/>
</g>
<path d="M118 61H92C90.3431 61 89 62.3431 89 64C89 65.6569 90.3431 67 92 67H118C119.657 67 121 65.6569 121 64C121 62.3431 119.657 61 118 61Z" fill="#D95074" fill-opacity="0.2"/>
<path d="M136 74H92C90.3431 74 89 75.3431 89 77C89 78.6569 90.3431 80 92 80H136C137.657 80 139 78.6569 139 77C139 75.3431 137.657 74 136 74Z" fill="#D95074" fill-opacity="0.2"/>
<path d="M76 56H57C54.2386 56 52 58.2386 52 61V80C52 82.7614 54.2386 85 57 85H76C78.7614 85 81 82.7614 81 80V61C81 58.2386 78.7614 56 76 56Z" fill="#D95074"/>
<path d="M64.2222 73.7803H66.2222L66.2442 73.0103C66.2442 71.9983 66.8822 71.7343 67.7842 71.4483C68.689 71.1909 69.4854 70.6459 70.053 69.8957C70.6206 69.1455 70.9285 68.231 70.9302 67.2903C70.95 66.7159 70.8504 66.1437 70.6376 65.6099C70.4248 65.076 70.1036 64.5921 69.6941 64.1889C69.2846 63.7856 68.7959 63.4718 68.2589 63.2672C67.7219 63.0626 67.1482 62.9717 66.5742 63.0003C65.9676 62.987 65.3647 63.0972 64.8019 63.324C64.2392 63.5508 63.7284 63.8895 63.3005 64.3196C62.8726 64.7498 62.5365 65.2624 62.3126 65.8263C62.0888 66.3902 61.9818 66.9937 61.9982 67.6003H64.0662C64.0584 67.2654 64.1174 66.9323 64.24 66.6205C64.3625 66.3088 64.546 66.0246 64.7798 65.7847C65.0136 65.5448 65.2929 65.3539 65.6013 65.2234C65.9098 65.0928 66.2412 65.0251 66.5762 65.0243C66.8783 65.0067 67.1806 65.0545 67.4626 65.1642C67.7446 65.2739 67.9997 65.443 68.2105 65.6601C68.4213 65.8772 68.5829 66.1371 68.6843 66.4222C68.7857 66.7072 68.8246 67.0108 68.7982 67.3123C68.7849 67.8001 68.6152 68.2709 68.3142 68.6551C68.0132 69.0392 67.5968 69.3166 67.1262 69.4463L66.4002 69.7343C65.6894 69.9055 65.0689 70.3375 64.6614 70.9445C64.254 71.5516 64.0894 72.2896 64.2002 73.0123L64.2222 73.7803ZM65.2122 78.5343C65.4081 78.5412 65.6033 78.5088 65.7864 78.439C65.9695 78.3692 66.1368 78.2634 66.2783 78.1279C66.4198 77.9923 66.5327 77.8298 66.6104 77.6498C66.688 77.4699 66.7287 77.2762 66.7302 77.0803C66.7285 76.8845 66.6875 76.691 66.6098 76.5113C66.532 76.3316 66.4191 76.1693 66.2776 76.0339C66.1361 75.8986 65.9689 75.793 65.786 75.7233C65.603 75.6536 65.4079 75.6213 65.2122 75.6283C65.0165 75.6213 64.8215 75.6536 64.6385 75.7233C64.4555 75.793 64.2883 75.8986 64.1468 76.0339C64.0053 76.1693 63.8924 76.3316 63.8147 76.5113C63.7369 76.691 63.696 76.8845 63.6942 77.0803C63.6957 77.2762 63.7365 77.4699 63.8141 77.6498C63.8917 77.8298 64.0046 77.9923 64.1461 78.1279C64.2876 78.2634 64.4549 78.3692 64.638 78.439C64.8211 78.5088 65.0164 78.5412 65.2122 78.5343Z" fill="#F7F7F9"/>
<g filter="url(#filter2_d_1_358)">
<path d="M11 96H146C147.326 96 148.598 96.5268 149.536 97.4645C150.473 98.4021 151 99.6739 151 101V126C151 127.326 150.473 128.598 149.536 129.536C148.598 130.473 147.326 131 146 131H11C9.67392 131 8.40215 130.473 7.46447 129.536C6.52678 128.598 6 127.326 6 126V101C6 99.6739 6.52678 98.4021 7.46447 97.4645C8.40215 96.5268 9.67392 96 11 96V96Z" fill="#F7F7F9"/>
</g>
<path d="M75 104H49C47.3431 104 46 105.343 46 107C46 108.657 47.3431 110 49 110H75C76.6569 110 78 108.657 78 107C78 105.343 76.6569 104 75 104Z" fill="#D95074" fill-opacity="0.2"/>
<path d="M93 117H49C47.3431 117 46 118.343 46 120C46 121.657 47.3431 123 49 123H93C94.6569 123 96 121.657 96 120C96 118.343 94.6569 117 93 117Z" fill="#D95074" fill-opacity="0.2"/>
<path d="M33 99H14C11.2386 99 9 101.239 9 104V123C9 125.761 11.2386 128 14 128H33C35.7614 128 38 125.761 38 123V104C38 101.239 35.7614 99 33 99Z" fill="#D95074"/>
<path d="M21.2222 116.78H23.2222L23.2442 116.01C23.2442 114.998 23.8822 114.734 24.7842 114.448C25.689 114.191 26.4854 113.646 27.053 112.896C27.6206 112.146 27.9285 111.231 27.9302 110.29C27.95 109.716 27.8504 109.144 27.6376 108.61C27.4248 108.076 27.1036 107.592 26.6941 107.189C26.2846 106.786 25.7959 106.472 25.2589 106.267C24.7219 106.063 24.1482 105.972 23.5742 106C22.9676 105.987 22.3647 106.097 21.8019 106.324C21.2392 106.551 20.7284 106.89 20.3005 107.32C19.8726 107.75 19.5365 108.262 19.3126 108.826C19.0888 109.39 18.9818 109.994 18.9982 110.6H21.0662C21.0584 110.265 21.1174 109.932 21.24 109.621C21.3625 109.309 21.546 109.025 21.7798 108.785C22.0136 108.545 22.2929 108.354 22.6013 108.223C22.9098 108.093 23.2412 108.025 23.5762 108.024C23.8783 108.007 24.1806 108.054 24.4626 108.164C24.7446 108.274 24.9997 108.443 25.2105 108.66C25.4213 108.877 25.5829 109.137 25.6843 109.422C25.7857 109.707 25.8246 110.011 25.7982 110.312C25.7849 110.8 25.6152 111.271 25.3142 111.655C25.0132 112.039 24.5968 112.317 24.1262 112.446L23.4002 112.734C22.6894 112.906 22.0689 113.337 21.6614 113.945C21.254 114.552 21.0894 115.29 21.2002 116.012L21.2222 116.78ZM22.2122 121.534C22.4081 121.541 22.6033 121.509 22.7864 121.439C22.9695 121.369 23.1368 121.263 23.2783 121.128C23.4198 120.992 23.5327 120.83 23.6104 120.65C23.688 120.47 23.7287 120.276 23.7302 120.08C23.7285 119.884 23.6875 119.691 23.6098 119.511C23.532 119.332 23.4191 119.169 23.2776 119.034C23.1361 118.899 22.9689 118.793 22.786 118.723C22.603 118.654 22.4079 118.621 22.2122 118.628C22.0165 118.621 21.8215 118.654 21.6385 118.723C21.4555 118.793 21.2883 118.899 21.1468 119.034C21.0053 119.169 20.8924 119.332 20.8147 119.511C20.7369 119.691 20.696 119.884 20.6942 120.08C20.6957 120.276 20.7365 120.47 20.8141 120.65C20.8917 120.83 21.0046 120.992 21.1461 121.128C21.2876 121.263 21.4549 121.369 21.638 121.439C21.8211 121.509 22.0164 121.541 22.2122 121.534Z" fill="#F7F7F9"/>
<defs>
<filter id="filter0_d_1_358" x="0" y="7" width="157" height="47" filterUnits="userSpaceOnUse" color-interpolation-filters="sRGB">
<feFlood flood-opacity="0" result="BackgroundImageFix"/>
<feColorMatrix in="SourceAlpha" type="matrix" values="0 0 0 0 0 0 0 0 0 0 0 0 0 0 0 0 0 0 127 0" result="hardAlpha"/>
<feOffset dy="3"/>
<feGaussianBlur stdDeviation="3"/>
<feColorMatrix type="matrix" values="0 0 0 0 0 0 0 0 0 0 0 0 0 0 0 0 0 0 0.161 0"/>
<feBlend mode="normal" in2="BackgroundImageFix" result="effect1_dropShadow_1_358"/>
<feBlend mode="normal" in="SourceGraphic" in2="effect1_dropShadow_1_358" result="shape"/>
</filter>
<filter id="filter1_d_1_358" x="43" y="50" width="157" height="47" filterUnits="userSpaceOnUse" color-interpolation-filters="sRGB">
<feFlood flood-opacity="0" result="BackgroundImageFix"/>
<feColorMatrix in="SourceAlpha" type="matrix" values="0 0 0 0 0 0 0 0 0 0 0 0 0 0 0 0 0 0 127 0" result="hardAlpha"/>
<feOffset dy="3"/>
<feGaussianBlur stdDeviation="3"/>
<feColorMatrix type="matrix" values="0 0 0 0 0 0 0 0 0 0 0 0 0 0 0 0 0 0 0.161 0"/>
<feBlend mode="normal" in2="BackgroundImageFix" result="effect1_dropShadow_1_358"/>
<feBlend mode="normal" in="SourceGraphic" in2="effect1_dropShadow_1_358" result="shape"/>
</filter>
<filter id="filter2_d_1_358" x="0" y="93" width="157" height="47" filterUnits="userSpaceOnUse" color-interpolation-filters="sRGB">
<feFlood flood-opacity="0" result="BackgroundImageFix"/>
<feColorMatrix in="SourceAlpha" type="matrix" values="0 0 0 0 0 0 0 0 0 0 0 0 0 0 0 0 0 0 127 0" result="hardAlpha"/>
<feOffset dy="3"/>
<feGaussianBlur stdDeviation="3"/>
<feColorMatrix type="matrix" values="0 0 0 0 0 0 0 0 0 0 0 0 0 0 0 0 0 0 0.161 0"/>
<feBlend mode="normal" in2="BackgroundImageFix" result="effect1_dropShadow_1_358"/>
<feBlend mode="normal" in="SourceGraphic" in2="effect1_dropShadow_1_358" result="shape"/>
</filter>
</defs>
</svg>
