<svg width="226" height="181" viewBox="0 0 226 181" fill="none" xmlns="http://www.w3.org/2000/svg">
<path fill-rule="evenodd" clip-rule="evenodd" d="M56.952 121.27H139.216C139.681 121.27 140.135 121.22 140.572 121.124C141.009 121.22 141.463 121.27 141.928 121.27H188.936C192.431 121.27 195.264 118.434 195.264 114.935C195.264 111.436 192.431 108.6 188.936 108.6H183.512C180.017 108.6 177.184 105.764 177.184 102.265C177.184 98.7662 180.017 95.9299 183.512 95.9299H200.688C204.183 95.9299 207.016 93.0936 207.016 89.5949C207.016 86.0962 204.183 83.2599 200.688 83.2599H180.8C184.295 83.2599 187.128 80.4236 187.128 76.9249C187.128 73.4262 184.295 70.5899 180.8 70.5899H122.944C126.439 70.5899 129.272 67.7536 129.272 64.2549C129.272 60.7562 126.439 57.9199 122.944 57.9199H71.416C67.9212 57.9199 65.088 60.7562 65.088 64.2549C65.088 67.7536 67.9212 70.5899 71.416 70.5899H35.256C31.7612 70.5899 28.928 73.4262 28.928 76.9249C28.928 80.4236 31.7612 83.2599 35.256 83.2599H57.856C61.3509 83.2599 64.184 86.0962 64.184 89.5949C64.184 93.0936 61.3509 95.9299 57.856 95.9299H21.696C18.2012 95.9299 15.368 98.7662 15.368 102.265C15.368 105.764 18.2012 108.6 21.696 108.6H56.952C53.4572 108.6 50.624 111.436 50.624 114.935C50.624 118.434 53.4572 121.27 56.952 121.27ZM204.304 121.27C207.799 121.27 210.632 118.434 210.632 114.935C210.632 111.436 207.799 108.6 204.304 108.6C200.809 108.6 197.976 111.436 197.976 114.935C197.976 118.434 200.809 121.27 204.304 121.27Z" fill="#D95074" fill-opacity="0.2"/>
<path d="M150.968 133.94H171.243M57.856 133.94H77.2505H57.856ZM46.2196 133.94H52.432H46.2196ZM175.492 133.94H178.088H175.492Z" stroke="#D95074" stroke-width="2.5" stroke-linecap="round" stroke-linejoin="round"/>
<path d="M88.592 39.1889L98.6261 50.459M135.69 39.1889L125.656 50.459L135.69 39.1889ZM112.096 35.2949V50.459V35.2949Z" stroke="#D95074" stroke-width="2.5" stroke-linecap="round" stroke-linejoin="round"/>
<path fill-rule="evenodd" clip-rule="evenodd" d="M83.889 64.2549H140.485L135.417 71.8658L142.175 76.9397H82.1996L89.8021 71.8658L83.889 64.2549Z" fill="#F7F7F9"/>
<rect x="80.4561" y="75.1147" width="64.184" height="67.875" rx="2" fill="white"/>
<path fill-rule="evenodd" clip-rule="evenodd" d="M84.6011 112.225V81.1289C84.6011 79.8477 85.6499 78.8091 86.9438 78.8091L142.067 136.804C142.067 138.512 140.701 139.897 139.016 139.897H87.652C85.967 139.897 84.6011 138.512 84.6011 136.804V125.247V122.112V112.225ZM84.6011 118.939V115.457V118.939Z" fill="#F7F7F9"/>
<path d="M81.3601 112.639V78.6312C81.3601 77.2301 82.5086 76.0942 83.9254 76.0942H142.616C143.539 76.0942 144.287 76.8515 144.287 77.7855V139.518C144.287 141.387 142.791 142.901 140.946 142.901H84.701C82.8559 142.901 81.3601 141.387 81.3601 139.518V126.88V123.451M81.3601 119.982V116.173" stroke="#D95074" stroke-width="2.5" stroke-linecap="round"/>
<path d="M83.0443 76.0942V65.9464C83.0443 65.0123 83.7231 64.2551 84.5605 64.2551H140.659C141.496 64.2551 142.175 65.0123 142.175 65.9464V76.0942" stroke="#D95074" stroke-width="2.5"/>
<path d="M98.6716 93.8527C100.304 93.8527 101.628 92.5275 101.628 90.8929C101.628 89.2582 100.304 87.9331 98.6716 87.9331C97.0388 87.9331 95.7151 89.2582 95.7151 90.8929C95.7151 92.5275 97.0388 93.8527 98.6716 93.8527Z" fill="#E8F0FE" stroke="#D95074" stroke-width="2.5" stroke-linecap="round"/>
<path d="M126.547 93.8527C128.18 93.8527 129.504 92.5275 129.504 90.8929C129.504 89.2582 128.18 87.9331 126.547 87.9331C124.915 87.9331 123.591 89.2582 123.591 90.8929C123.591 92.5275 124.915 93.8527 126.547 93.8527Z" fill="#E8F0FE" stroke="#D95074" stroke-width="2.5" stroke-linecap="round"/>
<path d="M126.125 93.8528C126.125 101.325 120.074 107.383 112.61 107.383C105.145 107.383 99.094 101.325 99.094 93.8528" stroke="#D95074" stroke-width="2.5" stroke-linecap="round"/>
<path d="M83.9406 65.0977L89.8875 70.9744C90.2428 71.3256 90.2465 71.8986 89.8958 72.2543C89.8351 72.3158 89.7659 72.3683 89.6903 72.4102L83.0443 76.0939" stroke="#D95074" stroke-width="2.5" stroke-linecap="round"/>
<path d="M141.422 65.1592L135.731 70.9697C135.382 71.3266 135.387 71.8996 135.744 72.2495C135.803 72.3079 135.871 72.3578 135.944 72.3978L142.712 76.0941" stroke="#D95074" stroke-width="2.5" stroke-linecap="round"/>
</svg>
