<svg width="44" height="44" viewBox="0 0 44 44" fill="none" xmlns="http://www.w3.org/2000/svg">
<rect width="44" height="44" rx="22" fill="white"/>
<path d="M28.2395 18.9752L27.395 19.071L28.2395 18.9752ZM28.6867 22.9153L29.5313 22.8194V22.8194L28.6867 22.9153ZM15.3133 22.9153L14.4687 22.8194L15.3133 22.9153ZM15.7605 18.9752L16.605 19.071L15.7605 18.9752ZM14.4478 24.8721L13.8005 24.3212H13.8005L14.4478 24.8721ZM29.5522 24.8721L28.905 25.4231V25.4231L29.5522 24.8721ZM24.2699 14.3737H23.4199C23.4199 14.737 23.6509 15.0601 23.9946 15.1778L24.2699 14.3737ZM19.7301 14.3737L20.0054 15.1778C20.3491 15.0601 20.5801 14.737 20.5801 14.3737H19.7301ZM25.7959 30.2983C25.9607 29.8587 25.7379 29.3688 25.2983 29.2041C24.8587 29.0393 24.3688 29.2621 24.2041 29.7017L25.7959 30.2983ZM19.7959 29.7017C19.6312 29.2621 19.1413 29.0393 18.7017 29.2041C18.2621 29.3688 18.0393 29.8587 18.2041 30.2983L19.7959 29.7017ZM27.7772 27.15H16.2228V28.85H27.7772V27.15ZM27.395 19.071L27.8421 23.0111L29.5313 22.8194L29.0841 18.8793L27.395 19.071ZM16.1579 23.0111L16.605 19.071L14.9159 18.8793L14.4687 22.8194L16.1579 23.0111ZM15.095 25.4231C15.6846 24.7305 16.0573 23.8972 16.1579 23.0111L14.4687 22.8194C14.4082 23.3526 14.1823 23.8727 13.8005 24.3212L15.095 25.4231ZM27.8421 23.0111C27.9427 23.8972 28.3154 24.7305 28.905 25.4231L30.1995 24.3212C29.8177 23.8727 29.5918 23.3526 29.5313 22.8194L27.8421 23.0111ZM16.2228 27.15C15.6023 27.15 15.1729 26.8442 14.9775 26.4998C14.7905 26.1703 14.7922 25.7789 15.095 25.4231L13.8005 24.3212C13.0064 25.2541 12.9814 26.4267 13.499 27.3389C14.0083 28.2363 15.0149 28.85 16.2228 28.85V27.15ZM27.7772 28.85C28.9851 28.85 29.9917 28.2363 30.501 27.3389C31.0187 26.4267 30.9936 25.2541 30.1995 24.3212L28.905 25.4231C29.2078 25.7789 29.2095 26.1703 29.0225 26.4998C28.8271 26.8442 28.3977 27.15 27.7772 27.15V28.85ZM25.1199 14.3737V14.2699H23.4199V14.3737H25.1199ZM29.0841 18.8793C28.7998 16.3742 26.943 14.3904 24.5453 13.5695L23.9946 15.1778C25.8817 15.8239 27.197 17.3271 27.395 19.071L29.0841 18.8793ZM20.5801 14.3737V14.2699H18.8801V14.3737H20.5801ZM16.605 19.071C16.803 17.3271 18.1183 15.8239 20.0054 15.1778L19.4547 13.5695C17.057 14.3904 15.2002 16.3742 14.9159 18.8793L16.605 19.071ZM22 12.85C22.7842 12.85 23.4199 13.4857 23.4199 14.2699H25.1199C25.1199 12.5468 23.7231 11.15 22 11.15V12.85ZM22 11.15C20.2769 11.15 18.8801 12.5468 18.8801 14.2699H20.5801C20.5801 13.4857 21.2158 12.85 22 12.85V11.15ZM24.2041 29.7017C23.8965 30.5223 23.0445 31.15 22 31.15V32.85C23.7255 32.85 25.2301 31.8081 25.7959 30.2983L24.2041 29.7017ZM22 31.15C20.9555 31.15 20.1035 30.5223 19.7959 29.7017L18.2041 30.2983C18.7699 31.8081 20.2745 32.85 22 32.85V31.15Z" fill="#2B2B2B"/>
<circle cx="38" cy="7" r="4" fill="#FD1600"/>
</svg>
