<svg width="29" height="29" viewBox="0 0 29 29" fill="none" xmlns="http://www.w3.org/2000/svg">
<path fill-rule="evenodd" clip-rule="evenodd" d="M18.7518 10.0264C18.7513 10.1126 18.7509 10.1988 18.7509 10.2851V11.0848C18.7507 11.2605 18.7513 11.4362 18.7519 11.6118C18.7531 11.9827 18.7542 12.3536 18.7484 12.7243C18.7399 13.263 18.3802 13.6413 17.8963 13.6399C17.411 13.6386 17.0585 13.267 17.0544 12.7202C17.0463 11.6272 17.0457 10.5341 17.0547 9.44116C17.0594 8.88918 17.4093 8.5256 17.9005 8.52648C18.3855 8.52736 18.7354 8.90248 18.7491 9.44541C18.7539 9.63893 18.7529 9.83264 18.7518 10.0264ZM11.0612 13.6387C10.5497 13.6333 10.2215 13.2528 10.2128 12.6383C10.2078 12.2788 10.209 11.9192 10.2102 11.5596C10.2108 11.4007 10.2113 11.2419 10.2113 11.0831C10.2115 10.9137 10.211 10.7443 10.2106 10.5749C10.2098 10.2259 10.209 9.8769 10.2131 9.52795C10.2202 8.91562 10.5488 8.53233 11.0598 8.52648C11.5721 8.52055 11.9228 8.90441 11.9274 9.50679C11.9355 10.5567 11.9367 11.6069 11.9275 12.657C11.9222 13.2654 11.5753 13.6441 11.0612 13.6387ZM10.985 1.7099C12.3405 1.67464 13.5033 2.64205 13.6052 3.98498C13.6536 4.62252 13.6415 5.26467 13.6294 5.91039C13.624 6.20019 13.6186 6.4907 13.6186 6.78183C13.3049 6.78183 12.9954 6.78898 12.6893 6.79606C12.0143 6.81166 11.3556 6.82689 10.7044 6.7642C9.36413 6.63526 8.42999 5.42079 8.51655 4.0757C8.59976 2.78205 9.68315 1.7438 10.985 1.7099ZM20.4398 4.04316C20.5191 5.3921 19.6519 6.6109 18.3754 6.74633C17.6954 6.8185 17.0059 6.8008 16.3137 6.78302C16.0052 6.7751 15.6961 6.76716 15.3871 6.76716C15.3871 6.45862 15.3792 6.14991 15.3713 5.84167C15.3536 5.15016 15.336 4.46098 15.4077 3.78119C15.5423 2.5043 16.7618 1.63554 18.1101 1.71615C19.329 1.78908 20.3683 2.82717 20.4398 4.04316ZM28.7591 9.74103C28.1997 8.01994 26.6739 6.88144 24.859 6.83608C24.0653 6.81627 23.271 6.82114 22.4559 6.82613C22.084 6.82841 21.7077 6.83071 21.3252 6.83071C22.9828 4.26778 21.852 1.87058 20.455 0.834332C18.9584 -0.275961 16.3343 -0.534321 14.4848 1.674C12.5397 -0.149906 10.559 -0.476142 8.74668 0.72783C7.91763 1.27861 7.34443 2.02492 7.0412 2.97262C6.60707 4.32933 6.85836 5.59092 7.66153 6.82398C7.59142 6.82398 7.52913 6.82396 7.4721 6.82393C7.35385 6.82388 7.25824 6.82384 7.16263 6.82406C6.84437 6.82486 6.52604 6.82355 6.20771 6.82225C5.49964 6.81936 4.79155 6.81646 4.08415 6.83664C2.16745 6.89129 0.489862 8.19728 0.133808 10.0742C-0.0422164 11.0024 -0.00618207 11.9792 0.0291455 12.9368C0.032041 13.0153 0.0349317 13.0936 0.0377005 13.1718C0.0512469 13.5543 0.265264 13.9684 0.491545 14.2966C1.02426 15.0692 1.81236 15.3495 2.74153 15.3471C5.96662 15.3392 9.19167 15.3403 12.4167 15.3414C13.6033 15.3418 14.7898 15.3422 15.9764 15.3422C16.9586 15.3422 17.9409 15.3426 18.9232 15.343C21.3929 15.3441 23.8626 15.3452 26.3323 15.3391C27.9149 15.3351 28.9836 14.2496 28.9903 12.67C28.9909 12.525 28.993 12.3798 28.9951 12.2346C29.001 11.8196 29.0068 11.4045 28.9792 10.9917C28.951 10.5711 28.8889 10.1404 28.7591 9.74103ZM17.9033 18.7633C18.3867 18.7669 18.7447 19.1445 18.7483 19.6847C18.7536 20.4774 18.7525 21.2702 18.7514 22.063C18.751 22.3892 18.7505 22.7153 18.7505 23.0414C18.7504 23.3826 18.7508 23.7237 18.7512 24.0648C18.7521 24.8426 18.7531 25.6204 18.7474 26.3982C18.744 26.8475 18.5045 27.1523 18.1087 27.2544C17.7289 27.3524 17.4134 27.2311 17.2057 26.9123C17.1104 26.7661 17.0592 26.5645 17.0585 26.3877C17.0489 24.1499 17.0483 21.9121 17.0548 19.6743C17.0563 19.1274 17.4156 18.7597 17.9033 18.7633ZM11.9314 19.875C11.9311 19.9031 11.9307 19.9311 11.9307 19.9592C11.9309 20.7788 11.9309 21.5985 11.9309 22.4182L11.9309 23.0366C11.9306 23.4029 11.9308 23.7691 11.931 24.1353C11.9314 24.8748 11.9318 25.6144 11.9284 26.3539C11.9266 26.7611 11.7627 27.0832 11.3623 27.2319C11.0164 27.3602 10.6644 27.3033 10.4626 27.0037C10.311 26.7788 10.2249 26.4669 10.2215 26.1923C10.2056 24.9129 10.2077 23.6334 10.2098 22.3538C10.2105 21.9414 10.2112 21.529 10.2112 21.1166C10.2113 20.9726 10.21 20.8285 10.2088 20.6845C10.2059 20.3354 10.2029 19.9863 10.2176 19.638C10.2398 19.1147 10.6001 18.7636 11.0717 18.7639C11.545 18.7642 11.8871 19.1125 11.9271 19.6396C11.9331 19.7177 11.9322 19.7964 11.9314 19.875ZM27.2909 17.5138V17.0831H1.70778C1.70506 17.1248 1.70226 17.16 1.6998 17.1911C1.69536 17.247 1.69199 17.2896 1.69199 17.3322C1.69186 17.6386 1.69173 17.9451 1.6916 18.2515C1.69067 20.3966 1.68974 22.5417 1.69311 24.6868C1.69343 24.9389 1.70513 25.1951 1.75018 25.4423C2.13942 27.5769 3.86222 28.9955 6.07798 28.9972C11.173 29.0012 16.2681 29.0001 21.3631 28.999L22.7897 28.9987C25.4586 28.9982 27.2862 27.1761 27.2906 24.5087C27.2933 22.8945 27.2925 21.2803 27.2917 19.6661C27.2913 18.9487 27.291 18.2312 27.2909 17.5138Z" fill="white"/>
</svg>
