<svg width="194" height="195" viewBox="0 0 194 195" fill="none" xmlns="http://www.w3.org/2000/svg">
<path d="M6.68966 0H0V6.72414H6.68966V0Z" fill="black"/>
<path d="M13.3793 0H6.68966V6.72414H13.3793V0Z" fill="black"/>
<path d="M20.069 0H13.3793V6.72414H20.069V0Z" fill="black"/>
<path d="M26.7586 0H20.069V6.72414H26.7586V0Z" fill="black"/>
<path d="M33.4483 0H26.7586V6.72414H33.4483V0Z" fill="black"/>
<path d="M40.1379 0H33.4483V6.72414H40.1379V0Z" fill="black"/>
<path d="M46.8276 0H40.1379V6.72414H46.8276V0Z" fill="black"/>
<path d="M60.2069 0H53.5172V6.72414H60.2069V0Z" fill="black"/>
<path d="M66.8966 0H60.2069V6.72414H66.8966V0Z" fill="black"/>
<path d="M86.9655 0H80.2759V6.72414H86.9655V0Z" fill="black"/>
<path d="M93.6552 0H86.9655V6.72414H93.6552V0Z" fill="black"/>
<path d="M107.034 0H100.345V6.72414H107.034V0Z" fill="black"/>
<path d="M127.103 0H120.414V6.72414H127.103V0Z" fill="black"/>
<path d="M153.862 0H147.172V6.72414H153.862V0Z" fill="black"/>
<path d="M160.552 0H153.862V6.72414H160.552V0Z" fill="black"/>
<path d="M167.241 0H160.552V6.72414H167.241V0Z" fill="black"/>
<path d="M173.931 0H167.241V6.72414H173.931V0Z" fill="black"/>
<path d="M180.621 0H173.931V6.72414H180.621V0Z" fill="black"/>
<path d="M187.31 0H180.621V6.72414H187.31V0Z" fill="black"/>
<path d="M194 0H187.31V6.72414H194V0Z" fill="black"/>
<path d="M6.68966 6.72414H0V13.4483H6.68966V6.72414Z" fill="black"/>
<path d="M46.8276 6.72414H40.1379V13.4483H46.8276V6.72414Z" fill="black"/>
<path d="M66.8966 6.72414H60.2069V13.4483H66.8966V6.72414Z" fill="black"/>
<path d="M93.6552 6.72414H86.9655V13.4483H93.6552V6.72414Z" fill="black"/>
<path d="M100.345 6.72414H93.6552V13.4483H100.345V6.72414Z" fill="black"/>
<path d="M107.034 6.72414H100.345V13.4483H107.034V6.72414Z" fill="black"/>
<path d="M113.724 6.72414H107.034V13.4483H113.724V6.72414Z" fill="black"/>
<path d="M140.483 6.72414H133.793V13.4483H140.483V6.72414Z" fill="black"/>
<path d="M153.862 6.72414H147.172V13.4483H153.862V6.72414Z" fill="black"/>
<path d="M194 6.72414H187.31V13.4483H194V6.72414Z" fill="black"/>
<path d="M6.68966 13.4483H0V20.1724H6.68966V13.4483Z" fill="black"/>
<path d="M20.069 13.4483H13.3793V20.1724H20.069V13.4483Z" fill="black"/>
<path d="M26.7586 13.4483H20.069V20.1724H26.7586V13.4483Z" fill="black"/>
<path d="M33.4483 13.4483H26.7586V20.1724H33.4483V13.4483Z" fill="black"/>
<path d="M46.8276 13.4483H40.1379V20.1724H46.8276V13.4483Z" fill="black"/>
<path d="M60.2069 13.4483H53.5172V20.1724H60.2069V13.4483Z" fill="black"/>
<path d="M66.8966 13.4483H60.2069V20.1724H66.8966V13.4483Z" fill="black"/>
<path d="M73.5862 13.4483H66.8966V20.1724H73.5862V13.4483Z" fill="black"/>
<path d="M93.6552 13.4483H86.9655V20.1724H93.6552V13.4483Z" fill="black"/>
<path d="M100.345 13.4483H93.6552V20.1724H100.345V13.4483Z" fill="black"/>
<path d="M113.724 13.4483H107.034V20.1724H113.724V13.4483Z" fill="black"/>
<path d="M127.103 13.4483H120.414V20.1724H127.103V13.4483Z" fill="black"/>
<path d="M133.793 13.4483H127.103V20.1724H133.793V13.4483Z" fill="black"/>
<path d="M140.483 13.4483H133.793V20.1724H140.483V13.4483Z" fill="black"/>
<path d="M153.862 13.4483H147.172V20.1724H153.862V13.4483Z" fill="black"/>
<path d="M167.241 13.4483H160.552V20.1724H167.241V13.4483Z" fill="black"/>
<path d="M173.931 13.4483H167.241V20.1724H173.931V13.4483Z" fill="black"/>
<path d="M180.621 13.4483H173.931V20.1724H180.621V13.4483Z" fill="black"/>
<path d="M194 13.4483H187.31V20.1724H194V13.4483Z" fill="black"/>
<path d="M6.68966 20.1724H0V26.8966H6.68966V20.1724Z" fill="black"/>
<path d="M20.069 20.1724H13.3793V26.8966H20.069V20.1724Z" fill="black"/>
<path d="M26.7586 20.1724H20.069V26.8966H26.7586V20.1724Z" fill="black"/>
<path d="M33.4483 20.1724H26.7586V26.8966H33.4483V20.1724Z" fill="black"/>
<path d="M46.8276 20.1724H40.1379V26.8966H46.8276V20.1724Z" fill="black"/>
<path d="M60.2069 20.1724H53.5172V26.8966H60.2069V20.1724Z" fill="black"/>
<path d="M73.5862 20.1724H66.8966V26.8966H73.5862V20.1724Z" fill="black"/>
<path d="M100.345 20.1724H93.6552V26.8966H100.345V20.1724Z" fill="black"/>
<path d="M113.724 20.1724H107.034V26.8966H113.724V20.1724Z" fill="black"/>
<path d="M120.414 20.1724H113.724V26.8966H120.414V20.1724Z" fill="black"/>
<path d="M140.483 20.1724H133.793V26.8966H140.483V20.1724Z" fill="black"/>
<path d="M153.862 20.1724H147.172V26.8966H153.862V20.1724Z" fill="black"/>
<path d="M167.241 20.1724H160.552V26.8966H167.241V20.1724Z" fill="black"/>
<path d="M173.931 20.1724H167.241V26.8966H173.931V20.1724Z" fill="black"/>
<path d="M180.621 20.1724H173.931V26.8966H180.621V20.1724Z" fill="black"/>
<path d="M194 20.1724H187.31V26.8966H194V20.1724Z" fill="black"/>
<path d="M6.68966 26.8966H0V33.6207H6.68966V26.8966Z" fill="black"/>
<path d="M20.069 26.8966H13.3793V33.6207H20.069V26.8966Z" fill="black"/>
<path d="M26.7586 26.8966H20.069V33.6207H26.7586V26.8966Z" fill="black"/>
<path d="M33.4483 26.8966H26.7586V33.6207H33.4483V26.8966Z" fill="black"/>
<path d="M46.8276 26.8966H40.1379V33.6207H46.8276V26.8966Z" fill="black"/>
<path d="M66.8966 26.8966H60.2069V33.6207H66.8966V26.8966Z" fill="black"/>
<path d="M73.5862 26.8966H66.8966V33.6207H73.5862V26.8966Z" fill="black"/>
<path d="M86.9655 26.8966H80.2759V33.6207H86.9655V26.8966Z" fill="black"/>
<path d="M93.6552 26.8966H86.9655V33.6207H93.6552V26.8966Z" fill="black"/>
<path d="M100.345 26.8966H93.6552V33.6207H100.345V26.8966Z" fill="black"/>
<path d="M127.103 26.8966H120.414V33.6207H127.103V26.8966Z" fill="black"/>
<path d="M133.793 26.8966H127.103V33.6207H133.793V26.8966Z" fill="black"/>
<path d="M140.483 26.8966H133.793V33.6207H140.483V26.8966Z" fill="black"/>
<path d="M153.862 26.8966H147.172V33.6207H153.862V26.8966Z" fill="black"/>
<path d="M167.241 26.8966H160.552V33.6207H167.241V26.8966Z" fill="black"/>
<path d="M173.931 26.8966H167.241V33.6207H173.931V26.8966Z" fill="black"/>
<path d="M180.621 26.8966H173.931V33.6207H180.621V26.8966Z" fill="black"/>
<path d="M194 26.8966H187.31V33.6207H194V26.8966Z" fill="black"/>
<path d="M6.68966 33.6207H0V40.3448H6.68966V33.6207Z" fill="black"/>
<path d="M46.8276 33.6207H40.1379V40.3448H46.8276V33.6207Z" fill="black"/>
<path d="M60.2069 33.6207H53.5172V40.3448H60.2069V33.6207Z" fill="black"/>
<path d="M107.034 33.6207H100.345V40.3448H107.034V33.6207Z" fill="black"/>
<path d="M120.414 33.6207H113.724V40.3448H120.414V33.6207Z" fill="black"/>
<path d="M140.483 33.6207H133.793V40.3448H140.483V33.6207Z" fill="black"/>
<path d="M153.862 33.6207H147.172V40.3448H153.862V33.6207Z" fill="black"/>
<path d="M194 33.6207H187.31V40.3448H194V33.6207Z" fill="black"/>
<path d="M6.68966 40.3448H0V47.069H6.68966V40.3448Z" fill="black"/>
<path d="M13.3793 40.3448H6.68966V47.069H13.3793V40.3448Z" fill="black"/>
<path d="M20.069 40.3448H13.3793V47.069H20.069V40.3448Z" fill="black"/>
<path d="M26.7586 40.3448H20.069V47.069H26.7586V40.3448Z" fill="black"/>
<path d="M33.4483 40.3448H26.7586V47.069H33.4483V40.3448Z" fill="black"/>
<path d="M40.1379 40.3448H33.4483V47.069H40.1379V40.3448Z" fill="black"/>
<path d="M46.8276 40.3448H40.1379V47.069H46.8276V40.3448Z" fill="black"/>
<path d="M60.2069 40.3448H53.5172V47.069H60.2069V40.3448Z" fill="black"/>
<path d="M73.5862 40.3448H66.8966V47.069H73.5862V40.3448Z" fill="black"/>
<path d="M86.9655 40.3448H80.2759V47.069H86.9655V40.3448Z" fill="black"/>
<path d="M100.345 40.3448H93.6552V47.069H100.345V40.3448Z" fill="black"/>
<path d="M113.724 40.3448H107.034V47.069H113.724V40.3448Z" fill="black"/>
<path d="M127.103 40.3448H120.414V47.069H127.103V40.3448Z" fill="black"/>
<path d="M140.483 40.3448H133.793V47.069H140.483V40.3448Z" fill="black"/>
<path d="M153.862 40.3448H147.172V47.069H153.862V40.3448Z" fill="black"/>
<path d="M160.552 40.3448H153.862V47.069H160.552V40.3448Z" fill="black"/>
<path d="M167.241 40.3448H160.552V47.069H167.241V40.3448Z" fill="black"/>
<path d="M173.931 40.3448H167.241V47.069H173.931V40.3448Z" fill="black"/>
<path d="M180.621 40.3448H173.931V47.069H180.621V40.3448Z" fill="black"/>
<path d="M187.31 40.3448H180.621V47.069H187.31V40.3448Z" fill="black"/>
<path d="M194 40.3448H187.31V47.069H194V40.3448Z" fill="black"/>
<path d="M60.2069 47.069H53.5172V53.7931H60.2069V47.069Z" fill="black"/>
<path d="M73.5862 47.069H66.8966V53.7931H73.5862V47.069Z" fill="black"/>
<path d="M80.2759 47.069H73.5862V53.7931H80.2759V47.069Z" fill="black"/>
<path d="M86.9655 47.069H80.2759V53.7931H86.9655V47.069Z" fill="black"/>
<path d="M107.034 47.069H100.345V53.7931H107.034V47.069Z" fill="black"/>
<path d="M113.724 47.069H107.034V53.7931H113.724V47.069Z" fill="black"/>
<path d="M133.793 47.069H127.103V53.7931H133.793V47.069Z" fill="black"/>
<path d="M6.68966 53.7931H0V60.5172H6.68966V53.7931Z" fill="black"/>
<path d="M13.3793 53.7931H6.68966V60.5172H13.3793V53.7931Z" fill="black"/>
<path d="M26.7586 53.7931H20.069V60.5172H26.7586V53.7931Z" fill="black"/>
<path d="M46.8276 53.7931H40.1379V60.5172H46.8276V53.7931Z" fill="black"/>
<path d="M53.5172 53.7931H46.8276V60.5172H53.5172V53.7931Z" fill="black"/>
<path d="M66.8966 53.7931H60.2069V60.5172H66.8966V53.7931Z" fill="black"/>
<path d="M73.5862 53.7931H66.8966V60.5172H73.5862V53.7931Z" fill="black"/>
<path d="M80.2759 53.7931H73.5862V60.5172H80.2759V53.7931Z" fill="black"/>
<path d="M100.345 53.7931H93.6552V60.5172H100.345V53.7931Z" fill="black"/>
<path d="M133.793 53.7931H127.103V60.5172H133.793V53.7931Z" fill="black"/>
<path d="M147.172 53.7931H140.483V60.5172H147.172V53.7931Z" fill="black"/>
<path d="M153.862 53.7931H147.172V60.5172H153.862V53.7931Z" fill="black"/>
<path d="M160.552 53.7931H153.862V60.5172H160.552V53.7931Z" fill="black"/>
<path d="M173.931 53.7931H167.241V60.5172H173.931V53.7931Z" fill="black"/>
<path d="M180.621 53.7931H173.931V60.5172H180.621V53.7931Z" fill="black"/>
<path d="M194 53.7931H187.31V60.5172H194V53.7931Z" fill="black"/>
<path d="M6.68966 60.5172H0V67.2414H6.68966V60.5172Z" fill="black"/>
<path d="M33.4483 60.5172H26.7586V67.2414H33.4483V60.5172Z" fill="black"/>
<path d="M53.5172 60.5172H46.8276V67.2414H53.5172V60.5172Z" fill="black"/>
<path d="M60.2069 60.5172H53.5172V67.2414H60.2069V60.5172Z" fill="black"/>
<path d="M100.345 60.5172H93.6552V67.2414H100.345V60.5172Z" fill="black"/>
<path d="M113.724 60.5172H107.034V67.2414H113.724V60.5172Z" fill="black"/>
<path d="M120.414 60.5172H113.724V67.2414H120.414V60.5172Z" fill="black"/>
<path d="M160.552 60.5172H153.862V67.2414H160.552V60.5172Z" fill="black"/>
<path d="M167.241 60.5172H160.552V67.2414H167.241V60.5172Z" fill="black"/>
<path d="M173.931 60.5172H167.241V67.2414H173.931V60.5172Z" fill="black"/>
<path d="M180.621 60.5172H173.931V67.2414H180.621V60.5172Z" fill="black"/>
<path d="M194 60.5172H187.31V67.2414H194V60.5172Z" fill="black"/>
<path d="M26.7586 67.2414H20.069V73.9655H26.7586V67.2414Z" fill="black"/>
<path d="M40.1379 67.2414H33.4483V73.9655H40.1379V67.2414Z" fill="black"/>
<path d="M46.8276 67.2414H40.1379V73.9655H46.8276V67.2414Z" fill="black"/>
<path d="M60.2069 67.2414H53.5172V73.9655H60.2069V67.2414Z" fill="black"/>
<path d="M66.8966 67.2414H60.2069V73.9655H66.8966V67.2414Z" fill="black"/>
<path d="M73.5862 67.2414H66.8966V73.9655H73.5862V67.2414Z" fill="black"/>
<path d="M80.2759 67.2414H73.5862V73.9655H80.2759V67.2414Z" fill="black"/>
<path d="M86.9655 67.2414H80.2759V73.9655H86.9655V67.2414Z" fill="black"/>
<path d="M93.6552 67.2414H86.9655V73.9655H93.6552V67.2414Z" fill="black"/>
<path d="M100.345 67.2414H93.6552V73.9655H100.345V67.2414Z" fill="black"/>
<path d="M107.034 67.2414H100.345V73.9655H107.034V67.2414Z" fill="black"/>
<path d="M120.414 67.2414H113.724V73.9655H120.414V67.2414Z" fill="black"/>
<path d="M133.793 67.2414H127.103V73.9655H133.793V67.2414Z" fill="black"/>
<path d="M140.483 67.2414H133.793V73.9655H140.483V67.2414Z" fill="black"/>
<path d="M167.241 67.2414H160.552V73.9655H167.241V67.2414Z" fill="black"/>
<path d="M173.931 67.2414H167.241V73.9655H173.931V67.2414Z" fill="black"/>
<path d="M180.621 67.2414H173.931V73.9655H180.621V67.2414Z" fill="black"/>
<path d="M194 67.2414H187.31V73.9655H194V67.2414Z" fill="black"/>
<path d="M13.3793 73.9655H6.68966V80.6897H13.3793V73.9655Z" fill="black"/>
<path d="M33.4483 73.9655H26.7586V80.6897H33.4483V73.9655Z" fill="black"/>
<path d="M40.1379 73.9655H33.4483V80.6897H40.1379V73.9655Z" fill="black"/>
<path d="M53.5172 73.9655H46.8276V80.6897H53.5172V73.9655Z" fill="black"/>
<path d="M60.2069 73.9655H53.5172V80.6897H60.2069V73.9655Z" fill="black"/>
<path d="M107.034 73.9655H100.345V80.6897H107.034V73.9655Z" fill="black"/>
<path d="M113.724 73.9655H107.034V80.6897H113.724V73.9655Z" fill="black"/>
<path d="M120.414 73.9655H113.724V80.6897H120.414V73.9655Z" fill="black"/>
<path d="M133.793 73.9655H127.103V80.6897H133.793V73.9655Z" fill="black"/>
<path d="M140.483 73.9655H133.793V80.6897H140.483V73.9655Z" fill="black"/>
<path d="M160.552 73.9655H153.862V80.6897H160.552V73.9655Z" fill="black"/>
<path d="M187.31 73.9655H180.621V80.6897H187.31V73.9655Z" fill="black"/>
<path d="M194 73.9655H187.31V80.6897H194V73.9655Z" fill="black"/>
<path d="M6.68966 80.6897H0V87.4138H6.68966V80.6897Z" fill="black"/>
<path d="M13.3793 80.6897H6.68966V87.4138H13.3793V80.6897Z" fill="black"/>
<path d="M20.069 80.6897H13.3793V87.4138H20.069V80.6897Z" fill="black"/>
<path d="M26.7586 80.6897H20.069V87.4138H26.7586V80.6897Z" fill="black"/>
<path d="M33.4483 80.6897H26.7586V87.4138H33.4483V80.6897Z" fill="black"/>
<path d="M46.8276 80.6897H40.1379V87.4138H46.8276V80.6897Z" fill="black"/>
<path d="M53.5172 80.6897H46.8276V87.4138H53.5172V80.6897Z" fill="black"/>
<path d="M60.2069 80.6897H53.5172V87.4138H60.2069V80.6897Z" fill="black"/>
<path d="M73.5862 80.6897H66.8966V87.4138H73.5862V80.6897Z" fill="black"/>
<path d="M80.2759 80.6897H73.5862V87.4138H80.2759V80.6897Z" fill="black"/>
<path d="M86.9655 80.6897H80.2759V87.4138H86.9655V80.6897Z" fill="black"/>
<path d="M100.345 80.6897H93.6552V87.4138H100.345V80.6897Z" fill="black"/>
<path d="M113.724 80.6897H107.034V87.4138H113.724V80.6897Z" fill="black"/>
<path d="M120.414 80.6897H113.724V87.4138H120.414V80.6897Z" fill="black"/>
<path d="M127.103 80.6897H120.414V87.4138H127.103V80.6897Z" fill="black"/>
<path d="M147.172 80.6897H140.483V87.4138H147.172V80.6897Z" fill="black"/>
<path d="M180.621 80.6897H173.931V87.4138H180.621V80.6897Z" fill="black"/>
<path d="M6.68966 87.4138H0V94.1379H6.68966V87.4138Z" fill="black"/>
<path d="M13.3793 87.4138H6.68966V94.1379H13.3793V87.4138Z" fill="black"/>
<path d="M40.1379 87.4138H33.4483V94.1379H40.1379V87.4138Z" fill="black"/>
<path d="M60.2069 87.4138H53.5172V94.1379H60.2069V87.4138Z" fill="black"/>
<path d="M66.8966 87.4138H60.2069V94.1379H66.8966V87.4138Z" fill="black"/>
<path d="M73.5862 87.4138H66.8966V94.1379H73.5862V87.4138Z" fill="black"/>
<path d="M100.345 87.4138H93.6552V94.1379H100.345V87.4138Z" fill="black"/>
<path d="M127.103 87.4138H120.414V94.1379H127.103V87.4138Z" fill="black"/>
<path d="M133.793 87.4138H127.103V94.1379H133.793V87.4138Z" fill="black"/>
<path d="M140.483 87.4138H133.793V94.1379H140.483V87.4138Z" fill="black"/>
<path d="M160.552 87.4138H153.862V94.1379H160.552V87.4138Z" fill="black"/>
<path d="M180.621 87.4138H173.931V94.1379H180.621V87.4138Z" fill="black"/>
<path d="M26.7586 94.1379H20.069V100.862H26.7586V94.1379Z" fill="black"/>
<path d="M33.4483 94.1379H26.7586V100.862H33.4483V94.1379Z" fill="black"/>
<path d="M46.8276 94.1379H40.1379V100.862H46.8276V94.1379Z" fill="black"/>
<path d="M66.8966 94.1379H60.2069V100.862H66.8966V94.1379Z" fill="black"/>
<path d="M86.9655 94.1379H80.2759V100.862H86.9655V94.1379Z" fill="black"/>
<path d="M93.6552 94.1379H86.9655V100.862H93.6552V94.1379Z" fill="black"/>
<path d="M107.034 94.1379H100.345V100.862H107.034V94.1379Z" fill="black"/>
<path d="M113.724 94.1379H107.034V100.862H113.724V94.1379Z" fill="black"/>
<path d="M120.414 94.1379H113.724V100.862H120.414V94.1379Z" fill="black"/>
<path d="M127.103 94.1379H120.414V100.862H127.103V94.1379Z" fill="black"/>
<path d="M133.793 94.1379H127.103V100.862H133.793V94.1379Z" fill="black"/>
<path d="M140.483 94.1379H133.793V100.862H140.483V94.1379Z" fill="black"/>
<path d="M153.862 94.1379H147.172V100.862H153.862V94.1379Z" fill="black"/>
<path d="M160.552 94.1379H153.862V100.862H160.552V94.1379Z" fill="black"/>
<path d="M187.31 94.1379H180.621V100.862H187.31V94.1379Z" fill="black"/>
<path d="M194 94.1379H187.31V100.862H194V94.1379Z" fill="black"/>
<path d="M6.68966 100.862H0V107.586H6.68966V100.862Z" fill="black"/>
<path d="M20.069 100.862H13.3793V107.586H20.069V100.862Z" fill="black"/>
<path d="M26.7586 100.862H20.069V107.586H26.7586V100.862Z" fill="black"/>
<path d="M33.4483 100.862H26.7586V107.586H33.4483V100.862Z" fill="black"/>
<path d="M80.2759 100.862H73.5862V107.586H80.2759V100.862Z" fill="black"/>
<path d="M93.6552 100.862H86.9655V107.586H93.6552V100.862Z" fill="black"/>
<path d="M107.034 100.862H100.345V107.586H107.034V100.862Z" fill="black"/>
<path d="M120.414 100.862H113.724V107.586H120.414V100.862Z" fill="black"/>
<path d="M127.103 100.862H120.414V107.586H127.103V100.862Z" fill="black"/>
<path d="M167.241 100.862H160.552V107.586H167.241V100.862Z" fill="black"/>
<path d="M173.931 100.862H167.241V107.586H173.931V100.862Z" fill="black"/>
<path d="M187.31 100.862H180.621V107.586H187.31V100.862Z" fill="black"/>
<path d="M33.4483 107.586H26.7586V114.31H33.4483V107.586Z" fill="black"/>
<path d="M46.8276 107.586H40.1379V114.31H46.8276V107.586Z" fill="black"/>
<path d="M53.5172 107.586H46.8276V114.31H53.5172V107.586Z" fill="black"/>
<path d="M66.8966 107.586H60.2069V114.31H66.8966V107.586Z" fill="black"/>
<path d="M73.5862 107.586H66.8966V114.31H73.5862V107.586Z" fill="black"/>
<path d="M93.6552 107.586H86.9655V114.31H93.6552V107.586Z" fill="black"/>
<path d="M100.345 107.586H93.6552V114.31H100.345V107.586Z" fill="black"/>
<path d="M120.414 107.586H113.724V114.31H120.414V107.586Z" fill="black"/>
<path d="M127.103 107.586H120.414V114.31H127.103V107.586Z" fill="black"/>
<path d="M133.793 107.586H127.103V114.31H133.793V107.586Z" fill="black"/>
<path d="M147.172 107.586H140.483V114.31H147.172V107.586Z" fill="black"/>
<path d="M153.862 107.586H147.172V114.31H153.862V107.586Z" fill="black"/>
<path d="M167.241 107.586H160.552V114.31H167.241V107.586Z" fill="black"/>
<path d="M173.931 107.586H167.241V114.31H173.931V107.586Z" fill="black"/>
<path d="M187.31 107.586H180.621V114.31H187.31V107.586Z" fill="black"/>
<path d="M194 107.586H187.31V114.31H194V107.586Z" fill="black"/>
<path d="M13.3793 114.31H6.68966V121.034H13.3793V114.31Z" fill="black"/>
<path d="M26.7586 114.31H20.069V121.034H26.7586V114.31Z" fill="black"/>
<path d="M33.4483 114.31H26.7586V121.034H33.4483V114.31Z" fill="black"/>
<path d="M40.1379 114.31H33.4483V121.034H40.1379V114.31Z" fill="black"/>
<path d="M53.5172 114.31H46.8276V121.034H53.5172V114.31Z" fill="black"/>
<path d="M60.2069 114.31H53.5172V121.034H60.2069V114.31Z" fill="black"/>
<path d="M73.5862 114.31H66.8966V121.034H73.5862V114.31Z" fill="black"/>
<path d="M86.9655 114.31H80.2759V121.034H86.9655V114.31Z" fill="black"/>
<path d="M93.6552 114.31H86.9655V121.034H93.6552V114.31Z" fill="black"/>
<path d="M133.793 114.31H127.103V121.034H133.793V114.31Z" fill="black"/>
<path d="M140.483 114.31H133.793V121.034H140.483V114.31Z" fill="black"/>
<path d="M153.862 114.31H147.172V121.034H153.862V114.31Z" fill="black"/>
<path d="M167.241 114.31H160.552V121.034H167.241V114.31Z" fill="black"/>
<path d="M173.931 114.31H167.241V121.034H173.931V114.31Z" fill="black"/>
<path d="M6.68966 121.034H0V127.759H6.68966V121.034Z" fill="black"/>
<path d="M33.4483 121.034H26.7586V127.759H33.4483V121.034Z" fill="black"/>
<path d="M40.1379 121.034H33.4483V127.759H40.1379V121.034Z" fill="black"/>
<path d="M46.8276 121.034H40.1379V127.759H46.8276V121.034Z" fill="black"/>
<path d="M60.2069 121.034H53.5172V127.759H60.2069V121.034Z" fill="black"/>
<path d="M66.8966 121.034H60.2069V127.759H66.8966V121.034Z" fill="black"/>
<path d="M73.5862 121.034H66.8966V127.759H73.5862V121.034Z" fill="black"/>
<path d="M80.2759 121.034H73.5862V127.759H80.2759V121.034Z" fill="black"/>
<path d="M93.6552 121.034H86.9655V127.759H93.6552V121.034Z" fill="black"/>
<path d="M100.345 121.034H93.6552V127.759H100.345V121.034Z" fill="black"/>
<path d="M113.724 121.034H107.034V127.759H113.724V121.034Z" fill="black"/>
<path d="M120.414 121.034H113.724V127.759H120.414V121.034Z" fill="black"/>
<path d="M133.793 121.034H127.103V127.759H133.793V121.034Z" fill="black"/>
<path d="M140.483 121.034H133.793V127.759H140.483V121.034Z" fill="black"/>
<path d="M153.862 121.034H147.172V127.759H153.862V121.034Z" fill="black"/>
<path d="M160.552 121.034H153.862V127.759H160.552V121.034Z" fill="black"/>
<path d="M173.931 121.034H167.241V127.759H173.931V121.034Z" fill="black"/>
<path d="M180.621 121.034H173.931V127.759H180.621V121.034Z" fill="black"/>
<path d="M194 121.034H187.31V127.759H194V121.034Z" fill="black"/>
<path d="M6.68966 127.759H0V134.483H6.68966V127.759Z" fill="black"/>
<path d="M20.069 127.759H13.3793V134.483H20.069V127.759Z" fill="black"/>
<path d="M33.4483 127.759H26.7586V134.483H33.4483V127.759Z" fill="black"/>
<path d="M40.1379 127.759H33.4483V134.483H40.1379V127.759Z" fill="black"/>
<path d="M66.8966 127.759H60.2069V134.483H66.8966V127.759Z" fill="black"/>
<path d="M86.9655 127.759H80.2759V134.483H86.9655V127.759Z" fill="black"/>
<path d="M93.6552 127.759H86.9655V134.483H93.6552V127.759Z" fill="black"/>
<path d="M100.345 127.759H93.6552V134.483H100.345V127.759Z" fill="black"/>
<path d="M107.034 127.759H100.345V134.483H107.034V127.759Z" fill="black"/>
<path d="M133.793 127.759H127.103V134.483H133.793V127.759Z" fill="black"/>
<path d="M140.483 127.759H133.793V134.483H140.483V127.759Z" fill="black"/>
<path d="M147.172 127.759H140.483V134.483H147.172V127.759Z" fill="black"/>
<path d="M153.862 127.759H147.172V134.483H153.862V127.759Z" fill="black"/>
<path d="M173.931 127.759H167.241V134.483H173.931V127.759Z" fill="black"/>
<path d="M194 127.759H187.31V134.483H194V127.759Z" fill="black"/>
<path d="M20.069 134.483H13.3793V141.207H20.069V134.483Z" fill="black"/>
<path d="M46.8276 134.483H40.1379V141.207H46.8276V134.483Z" fill="black"/>
<path d="M53.5172 134.483H46.8276V141.207H53.5172V134.483Z" fill="black"/>
<path d="M66.8966 134.483H60.2069V141.207H66.8966V134.483Z" fill="black"/>
<path d="M80.2759 134.483H73.5862V141.207H80.2759V134.483Z" fill="black"/>
<path d="M107.034 134.483H100.345V141.207H107.034V134.483Z" fill="black"/>
<path d="M120.414 134.483H113.724V141.207H120.414V134.483Z" fill="black"/>
<path d="M127.103 134.483H120.414V141.207H127.103V134.483Z" fill="black"/>
<path d="M140.483 134.483H133.793V141.207H140.483V134.483Z" fill="black"/>
<path d="M147.172 134.483H140.483V141.207H147.172V134.483Z" fill="black"/>
<path d="M153.862 134.483H147.172V141.207H153.862V134.483Z" fill="black"/>
<path d="M160.552 134.483H153.862V141.207H160.552V134.483Z" fill="black"/>
<path d="M167.241 134.483H160.552V141.207H167.241V134.483Z" fill="black"/>
<path d="M187.31 134.483H180.621V141.207H187.31V134.483Z" fill="black"/>
<path d="M194 134.483H187.31V141.207H194V134.483Z" fill="black"/>
<path d="M100.345 141.207H93.6552V147.931H100.345V141.207Z" fill="black"/>
<path d="M113.724 141.207H107.034V147.931H113.724V141.207Z" fill="black"/>
<path d="M127.103 141.207H120.414V147.931H127.103V141.207Z" fill="black"/>
<path d="M140.483 141.207H133.793V147.931H140.483V141.207Z" fill="black"/>
<path d="M167.241 141.207H160.552V147.931H167.241V141.207Z" fill="black"/>
<path d="M173.931 141.207H167.241V147.931H173.931V141.207Z" fill="black"/>
<path d="M180.621 141.207H173.931V147.931H180.621V141.207Z" fill="black"/>
<path d="M194 141.207H187.31V147.931H194V141.207Z" fill="black"/>
<path d="M6.68966 147.931H0V154.655H6.68966V147.931Z" fill="black"/>
<path d="M13.3793 147.931H6.68966V154.655H13.3793V147.931Z" fill="black"/>
<path d="M20.069 147.931H13.3793V154.655H20.069V147.931Z" fill="black"/>
<path d="M26.7586 147.931H20.069V154.655H26.7586V147.931Z" fill="black"/>
<path d="M33.4483 147.931H26.7586V154.655H33.4483V147.931Z" fill="black"/>
<path d="M40.1379 147.931H33.4483V154.655H40.1379V147.931Z" fill="black"/>
<path d="M46.8276 147.931H40.1379V154.655H46.8276V147.931Z" fill="black"/>
<path d="M60.2069 147.931H53.5172V154.655H60.2069V147.931Z" fill="black"/>
<path d="M66.8966 147.931H60.2069V154.655H66.8966V147.931Z" fill="black"/>
<path d="M93.6552 147.931H86.9655V154.655H93.6552V147.931Z" fill="black"/>
<path d="M107.034 147.931H100.345V154.655H107.034V147.931Z" fill="black"/>
<path d="M127.103 147.931H120.414V154.655H127.103V147.931Z" fill="black"/>
<path d="M140.483 147.931H133.793V154.655H140.483V147.931Z" fill="black"/>
<path d="M153.862 147.931H147.172V154.655H153.862V147.931Z" fill="black"/>
<path d="M167.241 147.931H160.552V154.655H167.241V147.931Z" fill="black"/>
<path d="M6.68966 154.655H0V161.379H6.68966V154.655Z" fill="black"/>
<path d="M46.8276 154.655H40.1379V161.379H46.8276V154.655Z" fill="black"/>
<path d="M66.8966 154.655H60.2069V161.379H66.8966V154.655Z" fill="black"/>
<path d="M80.2759 154.655H73.5862V161.379H80.2759V154.655Z" fill="black"/>
<path d="M107.034 154.655H100.345V161.379H107.034V154.655Z" fill="black"/>
<path d="M120.414 154.655H113.724V161.379H120.414V154.655Z" fill="black"/>
<path d="M140.483 154.655H133.793V161.379H140.483V154.655Z" fill="black"/>
<path d="M167.241 154.655H160.552V161.379H167.241V154.655Z" fill="black"/>
<path d="M173.931 154.655H167.241V161.379H173.931V154.655Z" fill="black"/>
<path d="M180.621 154.655H173.931V161.379H180.621V154.655Z" fill="black"/>
<path d="M6.68966 161.379H0V168.103H6.68966V161.379Z" fill="black"/>
<path d="M20.069 161.379H13.3793V168.103H20.069V161.379Z" fill="black"/>
<path d="M26.7586 161.379H20.069V168.103H26.7586V161.379Z" fill="black"/>
<path d="M33.4483 161.379H26.7586V168.103H33.4483V161.379Z" fill="black"/>
<path d="M46.8276 161.379H40.1379V168.103H46.8276V161.379Z" fill="black"/>
<path d="M66.8966 161.379H60.2069V168.103H66.8966V161.379Z" fill="black"/>
<path d="M100.345 161.379H93.6552V168.103H100.345V161.379Z" fill="black"/>
<path d="M107.034 161.379H100.345V168.103H107.034V161.379Z" fill="black"/>
<path d="M113.724 161.379H107.034V168.103H113.724V161.379Z" fill="black"/>
<path d="M133.793 161.379H127.103V168.103H133.793V161.379Z" fill="black"/>
<path d="M140.483 161.379H133.793V168.103H140.483V161.379Z" fill="black"/>
<path d="M147.172 161.379H140.483V168.103H147.172V161.379Z" fill="black"/>
<path d="M153.862 161.379H147.172V168.103H153.862V161.379Z" fill="black"/>
<path d="M160.552 161.379H153.862V168.103H160.552V161.379Z" fill="black"/>
<path d="M167.241 161.379H160.552V168.103H167.241V161.379Z" fill="black"/>
<path d="M173.931 161.379H167.241V168.103H173.931V161.379Z" fill="black"/>
<path d="M194 161.379H187.31V168.103H194V161.379Z" fill="black"/>
<path d="M6.68966 168.103H0V174.828H6.68966V168.103Z" fill="black"/>
<path d="M20.069 168.103H13.3793V174.828H20.069V168.103Z" fill="black"/>
<path d="M26.7586 168.103H20.069V174.828H26.7586V168.103Z" fill="black"/>
<path d="M33.4483 168.103H26.7586V174.828H33.4483V168.103Z" fill="black"/>
<path d="M46.8276 168.103H40.1379V174.828H46.8276V168.103Z" fill="black"/>
<path d="M60.2069 168.103H53.5172V174.828H60.2069V168.103Z" fill="black"/>
<path d="M66.8966 168.103H60.2069V174.828H66.8966V168.103Z" fill="black"/>
<path d="M73.5862 168.103H66.8966V174.828H73.5862V168.103Z" fill="black"/>
<path d="M80.2759 168.103H73.5862V174.828H80.2759V168.103Z" fill="black"/>
<path d="M100.345 168.103H93.6552V174.828H100.345V168.103Z" fill="black"/>
<path d="M107.034 168.103H100.345V174.828H107.034V168.103Z" fill="black"/>
<path d="M133.793 168.103H127.103V174.828H133.793V168.103Z" fill="black"/>
<path d="M140.483 168.103H133.793V174.828H140.483V168.103Z" fill="black"/>
<path d="M167.241 168.103H160.552V174.828H167.241V168.103Z" fill="black"/>
<path d="M180.621 168.103H173.931V174.828H180.621V168.103Z" fill="black"/>
<path d="M187.31 168.103H180.621V174.828H187.31V168.103Z" fill="black"/>
<path d="M6.68966 174.828H0V181.552H6.68966V174.828Z" fill="black"/>
<path d="M20.069 174.828H13.3793V181.552H20.069V174.828Z" fill="black"/>
<path d="M26.7586 174.828H20.069V181.552H26.7586V174.828Z" fill="black"/>
<path d="M33.4483 174.828H26.7586V181.552H33.4483V174.828Z" fill="black"/>
<path d="M46.8276 174.828H40.1379V181.552H46.8276V174.828Z" fill="black"/>
<path d="M86.9655 174.828H80.2759V181.552H86.9655V174.828Z" fill="black"/>
<path d="M93.6552 174.828H86.9655V181.552H93.6552V174.828Z" fill="black"/>
<path d="M127.103 174.828H120.414V181.552H127.103V174.828Z" fill="black"/>
<path d="M133.793 174.828H127.103V181.552H133.793V174.828Z" fill="black"/>
<path d="M140.483 174.828H133.793V181.552H140.483V174.828Z" fill="black"/>
<path d="M147.172 174.828H140.483V181.552H147.172V174.828Z" fill="black"/>
<path d="M167.241 174.828H160.552V181.552H167.241V174.828Z" fill="black"/>
<path d="M173.931 174.828H167.241V181.552H173.931V174.828Z" fill="black"/>
<path d="M180.621 174.828H173.931V181.552H180.621V174.828Z" fill="black"/>
<path d="M6.68966 181.552H0V188.276H6.68966V181.552Z" fill="black"/>
<path d="M46.8276 181.552H40.1379V188.276H46.8276V181.552Z" fill="black"/>
<path d="M60.2069 181.552H53.5172V188.276H60.2069V181.552Z" fill="black"/>
<path d="M73.5862 181.552H66.8966V188.276H73.5862V181.552Z" fill="black"/>
<path d="M100.345 181.552H93.6552V188.276H100.345V181.552Z" fill="black"/>
<path d="M107.034 181.552H100.345V188.276H107.034V181.552Z" fill="black"/>
<path d="M113.724 181.552H107.034V188.276H113.724V181.552Z" fill="black"/>
<path d="M140.483 181.552H133.793V188.276H140.483V181.552Z" fill="black"/>
<path d="M147.172 181.552H140.483V188.276H147.172V181.552Z" fill="black"/>
<path d="M153.862 181.552H147.172V188.276H153.862V181.552Z" fill="black"/>
<path d="M187.31 181.552H180.621V188.276H187.31V181.552Z" fill="black"/>
<path d="M194 181.552H187.31V188.276H194V181.552Z" fill="black"/>
<path d="M6.68966 188.276H0V195H6.68966V188.276Z" fill="black"/>
<path d="M13.3793 188.276H6.68966V195H13.3793V188.276Z" fill="black"/>
<path d="M20.069 188.276H13.3793V195H20.069V188.276Z" fill="black"/>
<path d="M26.7586 188.276H20.069V195H26.7586V188.276Z" fill="black"/>
<path d="M33.4483 188.276H26.7586V195H33.4483V188.276Z" fill="black"/>
<path d="M40.1379 188.276H33.4483V195H40.1379V188.276Z" fill="black"/>
<path d="M46.8276 188.276H40.1379V195H46.8276V188.276Z" fill="black"/>
<path d="M60.2069 188.276H53.5172V195H60.2069V188.276Z" fill="black"/>
<path d="M66.8966 188.276H60.2069V195H66.8966V188.276Z" fill="black"/>
<path d="M86.9655 188.276H80.2759V195H86.9655V188.276Z" fill="black"/>
<path d="M93.6552 188.276H86.9655V195H93.6552V188.276Z" fill="black"/>
<path d="M100.345 188.276H93.6552V195H100.345V188.276Z" fill="black"/>
<path d="M107.034 188.276H100.345V195H107.034V188.276Z" fill="black"/>
<path d="M133.793 188.276H127.103V195H133.793V188.276Z" fill="black"/>
<path d="M147.172 188.276H140.483V195H147.172V188.276Z" fill="black"/>
<path d="M160.552 188.276H153.862V195H160.552V188.276Z" fill="black"/>
<path d="M173.931 188.276H167.241V195H173.931V188.276Z" fill="black"/>
<path d="M180.621 188.276H173.931V195H180.621V188.276Z" fill="black"/>
</svg>
