<svg width="18" height="19" viewBox="0 0 18 19" fill="none" xmlns="http://www.w3.org/2000/svg">
<path fill-rule="evenodd" clip-rule="evenodd" d="M6.02255 17.7308C4.30381 17.2662 2.50435 17.0317 0.758754 16.817C0.382779 16.772 0.0337127 17.0232 0.0068574 17.3772C-0.0468532 17.7314 0.221857 18.0553 0.570976 18.1003C2.26286 18.3071 4.0083 18.5283 5.64647 18.9756C5.99559 19.0727 6.37172 18.8729 6.47914 18.5293C6.58657 18.186 6.37167 17.8281 6.02255 17.7308Z" fill="#2B2B2B"/>
<path fill-rule="evenodd" clip-rule="evenodd" d="M11.2323 11.1425C8.46622 8.42288 5.35101 6.05336 2.63862 3.2608C2.39693 3 1.96724 2.98602 1.69869 3.2295C1.43013 3.47323 1.40338 3.88307 1.67194 4.14387C4.38432 6.94445 7.49954 9.32173 10.2656 12.0493C10.5342 12.3039 10.9638 12.3076 11.2323 12.0571C11.474 11.8069 11.5009 11.3971 11.2323 11.1425Z" fill="#2B2B2B"/>
<path fill-rule="evenodd" clip-rule="evenodd" d="M16.4158 0.68197C16.4963 2.23854 16.5767 3.7951 16.6573 5.35192C16.6573 5.70846 16.9797 5.98376 17.3557 5.96643C17.7317 5.94883 18.0001 5.64533 18.0001 5.28853C17.9195 3.72938 17.8391 2.17049 17.7585 0.611593C17.7317 0.255052 17.4094 -0.0184333 17.0334 0.000972033C16.6843 0.0203774 16.3889 0.325689 16.4158 0.68197Z" fill="#2B2B2B"/>
</svg>
